<?xml version="1.0" encoding="UTF-8"?>
<svg xmlns="http://www.w3.org/2000/svg" xmlns:xlink="http://www.w3.org/1999/xlink" viewBox="0 0 48 48" width="48px" height="48px">
<g id="surface35127672">
<path style="fill-rule:nonzero;fill:rgb(37.64706%,49.019608%,54.509807%);fill-opacity:1;stroke-width:10;stroke-linecap:butt;stroke-linejoin:round;stroke:rgb(80.000001%,80.000001%,80.000001%);stroke-opacity:1;stroke-miterlimit:10;" d="M 21.496078 78.837853 L 150.503927 78.837853 L 150.503927 93.162152 L 21.496078 93.162152 Z M 21.496078 35.835236 L 150.503927 35.835236 L 150.503927 50.159536 L 21.496078 50.159536 Z M 21.496078 121.840469 L 150.503927 121.840469 L 150.503927 136.164769 L 21.496078 136.164769 Z M 21.496078 121.840469 " transform="matrix(0.262884,0,0,0.262884,1.392,1.392)"/>
<path style=" stroke:none;fill-rule:nonzero;fill:rgb(100%,100%,100%);fill-opacity:1;" d="M 7.042969 22.117188 L 40.957031 22.117188 L 40.957031 25.882812 L 7.042969 25.882812 Z M 7.042969 10.8125 L 40.957031 10.8125 L 40.957031 14.578125 L 7.042969 14.578125 Z M 7.042969 33.421875 L 40.957031 33.421875 L 40.957031 37.1875 L 7.042969 37.1875 Z M 7.042969 33.421875 "/>
</g>
</svg>
